<svg xmlns="http://www.w3.org/2000/svg" viewBox="0 0 1000 1000"><defs><style>.cls-1{fill:#af5231;}</style></defs><g id="Capa_6" data-name="Capa 6"><path class="cls-1" d="M519.7,710.86c-12.48,20.7-27.08,23.2-28,29.1-2.12,0-4.24.11-6.36.11h-.59c-2.35,0-4.71-.06-7-.17-2.94-.06-5.89-.23-8.77-.45-1.06-.06-2.06-.17-3.06-.29-1.59-.11-3.12-.28-4.71-.45-3.41-.34-6.71-.79-10-1.36a207.87,207.87,0,0,1-101.42-47c.35.11.71.28,1.06.4,40.32,15,80.76-3.8,89.41-7.78,30.44-14.18,53.1-38.39,52.92-47.75,6.42.9,12.89,1.47,19.49,1.76,2.94.17,5.88.22,8.82.22,1.53,0,3.12,0,4.65-.11a17.45,17.45,0,0,0,1.77-.06,17.88,17.88,0,0,0-5.12,10c-1.18,8.57,5.53,10.55,7.77,22.86C533.71,687.61,523.53,704.56,519.7,710.86Z"/><path class="cls-1" d="M625.83,687.27v.05l-3.89,3.24v.05q-6.44,5.28-13.24,10a209.2,209.2,0,0,1-52.45,26.55c3-6.87,5-14.69,7.07-23,3.12-12.08,5.24-20.47,3.12-30.51-2.83-13.22-10.07-15.14-10.07-25.69,0-6.75,3-12,5.36-16,3.18-.57,6.3-1.25,9.42-2a188.25,188.25,0,0,0,23.13-7,33.82,33.82,0,0,0-.88,12.53,30.85,30.85,0,0,0,11.89,20.31c11.12,9,19.54,2.5,23.07,9.7C631.25,671.61,627.77,681,625.83,687.27Z"/><path class="cls-1" d="M693,575.37l-.36,1.67a1.09,1.09,0,0,1-.16.64,207.59,207.59,0,0,1-33.14,72.8,202.76,202.76,0,0,1-20.59,24.64c3-8.9,4.09-19,.8-22.73-4-4.61-10.7,4.25-17.13-.91-5-4-6.16-13.72-6.6-17.65-1.15-10.77,1.83-17.05,1.83-21.26a189.78,189.78,0,0,0,32.07-21.18,167.71,167.71,0,0,0,12.91-11.57A42.36,42.36,0,0,1,693,575.37Z"/><path class="cls-1" d="M634.53,379.45c-5.4,6.51-15.1,13.31-23.88,18.68-7.07,4.33-16.69,2.78-33.34,2.66-14-11.73,7.15-25,7.15-25s-49.12-26.15-82.94-42.48-63.31,0-63.31,0-11.28,9.42-6.95,24.12,46.14,1.51,46.14,1.51C514.83,348.77,527,394,527,394l-24.83,2c2.5,3.22,24.4,5.09,44.43,6.12l-31.12.79c-33.14,1-63.23,10.69-86.52,26.31-2.14,1.47-4.25,2.94-6.24,4.41,0,0-.08,0-.08.12a118.83,118.83,0,0,0-39.5,88.47c0,34.18,14.67,65,38.27,87.43,5.05,2.94,10.37,5.56,15.66,8,.12,0,.24.12.36.16,3.81,1.74,7.67,3.33,11.52,4.84-14.66,1-17,22.58-31.35,35.1-.08,0-.08,0-.12,0-25.8,22.37-78.05,5.52-94.83,6.63-.59-.59-1.19-1.27-1.71-1.91a204.72,204.72,0,0,1-19.55-27.85,201.48,201.48,0,0,1-21.18-50,203.75,203.75,0,0,1-6.44-33.58c-.51-4.93-.79-9.82-1-14.82,0-2.27-.12-4.45-.12-6.76,0-2,0-4,.08-6,.16-5.21.48-10.41,1-15.54a208.12,208.12,0,0,1,63.95-130.15,4.61,4.61,0,0,1,.71-.64.85.85,0,0,0-.12.28c0-.12.24-.24.36-.32a85.23,85.23,0,0,1,26.07-21c.76-.44,1.51-.84,2.35-1.23a54.57,54.57,0,0,1,5.4-2.51c-.28-.28-.52-.55-.76-.83a27.18,27.18,0,0,1-3.29-3.82,40.89,40.89,0,0,1-8.67-25.15c0-24.17,21.26-43.8,47.45-43.8,20.63,0,38.08,12.08,44.75,28.85,3.1-.12,6.28-.19,9.54-.19,28.49,0,54.09,6.51,71.38,16.81A63.15,63.15,0,0,1,546,334.3c15.86,3.06,32.63,15.9,61.36,22.69a146.54,146.54,0,0,0,16.42,3c3.57.48,11,1.28,14.1,6.4C640.22,370.27,638.43,374.8,634.53,379.45Z"/></g></svg>